# xmcd CD database file
#
# Track frame offsets:
#	150
#	12898
#	24870
#	38240
#	50637
#	64583
#	77347
#	89361
#	104094
#	116205
#	128582
#	140061
#	154469
#	166528
#	187736
#	213568
#	232478
#	261002
#
# Disc length: 3718 seconds
#
# Revision: 0
# Processed by: cddbd v1.5.2PL0 Copyright (c) Steve Scherf et al.
# Submitted via: CDex 1.50Beta7
#
DISCID=f40e8412
DTITLE=Sarah Vaughan - You're not that kind
DYEAR=1900
DGENRE=Jazz
TTITLE0=If you could see me now
TTITLE1=I love you
TTITLE2=Ev'ryday
TTITLE3=Dedicated to you
TTITLE4=You're all I need
TTITLE5=Can't get out of this mood
TTITLE6=Shulie a bop
TTITLE7=Lover man
TTITLE8=They can't take that away from me
TTITLE9=Prelude to a kiss
TTITLE10=Polka dots and moonbeams
TTITLE11=Body and soul
TTITLE12=Make yourself comfortable
TTITLE13=You're not that kind
TTITLE14=September song
TTITLE15=He's my guy
TTITLE16=April in Paris
TTITLE17=Lullaby of Birdland
EXTD=
EXTT0=
EXTT1=
EXTT2=
EXTT3=
EXTT4=
EXTT5=
EXTT6=
EXTT7=
EXTT8=
EXTT9=
EXTT10=
EXTT11=
EXTT12=
EXTT13=
EXTT14=
EXTT15=
EXTT16=
EXTT17=
PLAYORDER=
